<?xml version="1.0" standalone="no"?>
<!DOCTYPE svg PUBLIC "-//W3C//DTD SVG 1.1//EN" "http://www.w3.org/Graphics/SVG/1.1/DTD/svg11.dtd" >
<svg xmlns="http://www.w3.org/2000/svg">
<metadata>Generated by IcoMoon</metadata>
<defs>
<font id="icomoon" horiz-adv-x="1024">
<font-face units-per-em="1024" ascent="960" descent="-64" />
<missing-glyph horiz-adv-x="1024" />
<glyph unicode="&#x20;" horiz-adv-x="512" d="" />
<glyph unicode="&#xe900;" glyph-name="last-name" d="M750.933-12.8h-93.867c0 153.6-128 281.6-281.6 273.067-153.6 0-281.6-119.467-281.6-273.067h-93.867c0 204.8 170.667 366.933 375.467 366.933s375.467-162.133 375.467-366.933zM375.467 379.733c-136.533 0-247.467 110.933-247.467 247.467s110.933 247.467 247.467 247.467 247.467-110.933 247.467-247.467c0 0 0 0 0 0 0-136.533-110.933-247.467-247.467-247.467zM375.467 780.8c-85.333 0-153.6-68.267-153.6-153.6s68.267-153.6 153.6-153.6c85.333 0 153.6 68.267 153.6 153.6 0 0 0 0 0 0 0 85.333-68.267 153.6-153.6 153.6v0zM699.221 695.467h247.467v-85.333h-247.467v85.333zM699.221 448h247.467v-85.333h-247.467v85.333zM758.955 576h247.467v-85.333h-247.467v85.333z" />
<glyph unicode="&#xe901;" glyph-name="first-name" d="M261.547-12.8h93.867c0 153.6 128 281.6 281.6 273.067 153.6 0 281.6-119.467 281.6-273.067h93.867c0 204.8-170.667 366.933-375.467 366.933s-375.467-162.133-375.467-366.933zM637.013 379.733c136.533 0 247.467 110.933 247.467 247.467s-110.933 247.467-247.467 247.467-247.467-110.933-247.467-247.467v0c0-136.533 110.933-247.467 247.467-247.467zM637.013 780.8c85.333 0 153.6-68.267 153.6-153.6s-68.267-153.6-153.6-153.6c-85.333 0-153.6 68.267-153.6 153.6 0 0 0 0 0 0 0 85.333 68.267 153.6 153.6 153.6v0zM59.733 695.467h247.467v-85.333h-247.467v85.333zM59.733 448h247.467v-85.333h-247.467v85.333zM0 576h247.467v-85.333h-247.467v85.333z" />
<glyph unicode="&#xe902;" glyph-name="search" d="M668.295 340.211l210.189-210.189-64.674-64.674-210.189 210.189v37.726l-10.779 10.779c-53.895-43.116-113.179-64.674-177.853-64.674-75.453 0-145.516 26.947-199.411 80.842s-80.842 118.568-80.842 194.021c0 75.453 26.947 140.126 80.842 194.021s118.568 80.842 194.021 80.842c75.453 0 140.126-26.947 194.021-80.842s80.842-118.568 80.842-199.411c0-70.063-21.558-129.347-64.674-177.853l10.779-10.779h37.726zM274.863 399.495c37.726-37.726 80.842-53.895 134.737-53.895s97.011 16.168 134.737 53.895c37.726 37.726 53.895 80.842 53.895 134.737s-16.168 97.011-53.895 134.737c-37.726 37.726-80.842 53.895-134.737 53.895s-97.011-16.168-134.737-53.895c-37.726-37.726-53.895-80.842-53.895-134.737s16.168-97.011 53.895-134.737z" />
<glyph unicode="&#xe903;" glyph-name="bell" d="M906.541 158.871h-813.176c-24.094 0-48.188 18.071-60.235 42.165-6.024 24.094 0 54.212 24.094 66.259 0 0 108.424 84.329 108.424 355.388 0 186.729 150.588 337.318 331.294 337.318s331.294-150.588 331.294-331.294c0-271.059 108.424-355.388 108.424-355.388 18.071-18.071 30.118-42.165 24.094-66.259-6.024-30.118-30.118-48.188-54.212-48.188zM213.835 279.341h566.212c-36.141 72.282-72.282 180.706-72.282 349.365 0 114.447-96.376 210.824-210.824 210.824s-210.824-96.376-210.824-210.824c0-162.635-36.141-277.082-72.282-349.365zM496.941-64c0 0 0 0 0 0-54.212 0-102.4 30.118-132.518 72.282-18.071 30.118-6.024 66.259 24.094 84.329s66.259 6.024 84.329-24.094c6.024-12.047 18.071-12.047 24.094-12.047 0 0 0 0 0 0s0 0 0 0c12.047 0 18.071 6.024 24.094 12.047 18.071 30.118 54.212 36.141 84.329 24.094s36.141-54.212 24.094-84.329c-30.118-42.165-78.306-72.282-132.518-72.282z" />
<glyph unicode="&#xe904;" glyph-name="profile-arrow" d="M504.661 152.405c-25.6 0-42.667 8.533-59.733 25.6l-384 384c-34.133 34.133-34.133 85.333 0 119.467s85.333 34.133 119.467 0l324.267-315.733 324.267 324.267c34.133 34.133 85.333 34.133 119.467 0s34.133-85.333 0-119.467l-384-392.533c-17.067-17.067-34.133-25.6-59.733-25.6z" />
<glyph unicode="&#xe905;" glyph-name="arrow-down" d="M551.822 817.778v-603.022l153.6 153.6 62.578-62.578-256-256-256 256 62.578 62.578 153.6-153.6v603.022h79.644z" />
<glyph unicode="&#xe906;" glyph-name="accordian-2-minus" d="M208.896 742.912c81.92 81.92 184.32 126.976 303.104 126.976s217.088-40.96 303.104-126.976c81.92-81.92 126.976-184.32 126.976-299.008 0-118.784-40.96-217.088-126.976-299.008s-188.416-126.976-307.2-126.976-217.088 40.96-299.008 122.88c-81.92 81.92-126.976 184.32-126.976 299.008 0 118.784 40.96 221.184 126.976 303.104zM720.896 398.848v86.016h-425.984v-86.016h425.984z" />
<glyph unicode="&#xe907;" glyph-name="accordian-2-add" d="M208.896 742.912c81.92 81.92 184.32 126.976 303.104 126.976s217.088-40.96 303.104-126.976c81.92-81.92 126.976-184.32 126.976-299.008 0-118.784-40.96-217.088-126.976-299.008s-188.416-126.976-307.2-126.976-217.088 40.96-299.008 122.88c-81.92 81.92-126.976 184.32-126.976 299.008 0 118.784 40.96 221.184 126.976 303.104zM720.896 398.848v86.016h-172.032v172.032h-81.92v-172.032h-172.032v-86.016h172.032v-172.032h86.016v172.032h167.936z" />
<glyph unicode="&#xe908;" glyph-name="twitter" d="M849.541 607.289c0-7.585 0-15.17 0-22.756 0-60.681-11.378-117.57-34.133-178.252s-53.096-109.985-94.815-159.289c-41.719-49.304-94.815-87.23-159.289-117.57-60.681-26.548-132.741-41.719-208.593-41.719-98.607 0-185.837 26.548-269.274 79.644 15.17-3.793 30.341-3.793 41.719-3.793 79.644 0 155.496 26.548 216.178 75.852-37.926 0-72.059 15.17-102.4 34.133-30.341 22.756-49.304 53.096-60.681 87.23 11.378-3.793 22.756-3.793 30.341-3.793 15.17 0 30.341 3.793 45.511 7.585-41.719 7.585-72.059 26.548-98.607 60.681-26.548 30.341-41.719 68.267-41.719 109.985v3.793c26.548-15.17 53.096-18.963 79.644-22.756-53.096 34.133-79.644 83.437-79.644 144.119 0 30.341 7.585 60.681 22.756 87.23 53.096-53.096 106.193-94.815 166.874-128.948s128.948-49.304 201.007-53.096c-3.793 15.17-3.793 26.548-3.793 41.719 0 49.304 15.17 87.23 49.304 121.363s75.852 49.304 121.363 49.304c49.304 0 94.815-18.963 128.948-53.096 41.719 7.585 75.852 22.756 113.778 41.719-15.17-41.719-37.926-72.059-79.644-94.815 34.133 3.793 68.267 11.378 102.4 26.548-22.756-34.133-49.304-64.474-87.23-91.022z" />
<glyph unicode="&#xe909;" d="M936.69 429.675c0-245.803-199.263-445.066-445.066-445.066s-445.066 199.263-445.066 445.066c0 245.803 199.263 445.066 445.066 445.066s445.066-199.263 445.066-445.066z" />
<glyph unicode="&#xe90a;" d="M704.636 607.817h-384.576c-17.684 0-32.023-14.325-32.045-32.004v-64.014c0.022-17.681 14.361-32.006 32.045-32.006h384.576c0.011 0 0.025 0 0.039 0 17.676 0 32.006 14.33 32.006 32.006v0 64.206c-0.153 17.589-14.437 31.791-32.043 31.813h-0.002zM512.019 960c-282.78 0-512.019-229.239-512.019-512.019s229.239-512.019 512.019-512.019c282.78 0 512.019 229.239 512.019 512.019v0c0 282.78-229.239 512.019-512.019 512.019v0zM512.019 32.018c-0.012 0-0.025 0-0.039 0-229.751 0-416.001 186.25-416.001 416.001s186.25 416.001 416.001 416.001c229.751 0 416.001-186.25 416.001-416.001 0-0.014 0-0.028 0-0.041v0.003c-0.022-229.721-186.241-415.94-415.96-415.963h-0.003zM704.675 416.013h-384.614c-17.684 0-32.023-14.325-32.045-32.004v-64.014c0.022-17.681 14.361-32.006 32.045-32.006h384.576c0.011 0 0.025 0 0.039 0 17.676 0 32.006 14.33 32.006 32.006v0 64.012c-0.044 17.672-14.369 31.984-32.043 32.006h-0.002z" />
<glyph unicode="&#xe90b;" glyph-name="accordian-add" d="M512 960c-282.77 0-512-229.23-512-512s229.23-512 512-512c282.77 0 512 229.23 512 512v0c-0.311 282.645-229.355 511.689-511.97 512h-0.030zM512 15.326c-238.959 0-432.674 193.715-432.674 432.674s193.715 432.674 432.674 432.674c238.959 0 432.674-193.715 432.674-432.674v0c-0.291-238.842-193.832-432.383-432.646-432.674h-0.028zM710.212 491.247h-158.652v158.618c0 21.905-17.758 39.663-39.663 39.663s-39.663-17.758-39.663-39.663v0-158.652h-158.652c-21.905 0-39.663-17.758-39.663-39.663s17.758-39.663 39.663-39.663v0h158.652v-158.652c0-21.905 17.758-39.663 39.663-39.663s39.663 17.758 39.663 39.663v0 158.652h158.652c21.905 0 39.663 17.758 39.663 39.663s-17.758 39.663-39.663 39.663v0z" />
<glyph unicode="&#xe90c;" glyph-name="accordian-minus" d="M512 960c-282.77 0-512-229.23-512-512s229.23-512 512-512c282.77 0 512 229.23 512 512v0c-0.311 282.645-229.355 511.689-511.97 512h-0.030zM512 15.326c-238.959 0-432.674 193.715-432.674 432.674s193.715 432.674 432.674 432.674c238.959 0 432.674-193.715 432.674-432.674v0c-0.291-238.842-193.832-432.383-432.646-432.674h-0.028zM710.212 491.247h-396.493c-21.905 0-39.663-17.758-39.663-39.663s17.758-39.663 39.663-39.663v0h396.493c21.905 0 39.663 17.758 39.663 39.663s-17.758 39.663-39.663 39.663v0z" />
<glyph unicode="&#xe90d;" glyph-name="instagram-sketched" d="M1020.915 659.124c-0.937 44.874-9.59 87.45-24.679 126.841l0.867-2.576c-13.576 35.482-33.66 65.728-59.010 90.632l-0.037 0.036c-24.938 25.404-55.184 45.504-88.952 58.514l-1.716 0.581c-36.848 14.218-79.462 22.856-123.975 23.757l-0.386 0.006c-54.564 2.506-71.965 3.085-211.028 3.085s-156.511-0.578-211.124-3.085c-44.874-0.937-87.45-9.59-126.841-24.679l2.576 0.867c-35.482-13.576-65.728-33.66-90.632-59.010l-0.036-0.037c-25.404-24.938-45.504-55.184-58.514-88.952l-0.581-1.716c-14.207-36.818-22.844-79.397-23.757-123.873l-0.006-0.391c-2.506-54.613-3.085-72.062-3.085-211.124s0.578-156.463 3.085-211.028c0.925-44.905 9.579-87.516 24.679-126.937l-0.867 2.576c13.574-35.483 33.659-65.729 59.010-90.632l0.037-0.036c24.935-25.395 55.183-45.481 88.953-58.467l1.715-0.58c36.814-14.227 79.392-22.881 123.869-23.805l0.396-0.006c54.613-2.506 72.062-3.085 211.076-3.085s156.511 0.578 211.076 3.085c44.874 0.937 87.45 9.59 126.841 24.679l-2.576-0.867c68.966 27.179 122.536 80.749 149.097 147.942l0.618 1.773c14.263 36.838 22.95 79.444 23.901 123.954l0.007 0.407c2.506 54.613 3.085 72.062 3.085 211.076s-0.578 156.511-3.085 211.076zM928.753 241.118c-0.425-34.24-6.858-66.85-18.29-97.002l0.648 1.948c-17.624-44.749-52.404-79.497-96.025-96.679l-1.15-0.399c-28.204-10.784-60.814-17.217-94.872-17.64l-0.182-0.002c-53.986-2.458-70.182-2.989-206.882-2.989s-152.896 0.53-206.882 2.989c-34.256 0.421-66.884 6.855-97.051 18.29l1.949-0.648c-23.080 8.674-42.738 21.731-58.818 38.282l-0.037 0.038c-16.592 16.115-29.649 35.773-37.959 57.763l-0.362 1.091c-10.784 28.204-17.217 60.814-17.64 94.872l-0.002 0.182c-2.458 53.986-2.989 70.182-2.989 206.882s0.53 152.896 2.989 206.882c0.429 34.24 6.862 66.85 18.29 97.003l-0.648-1.949c8.676 23.079 21.732 42.737 38.282 58.818l0.038 0.037c16.114 16.594 35.773 29.651 57.763 37.959l1.091 0.362c28.226 10.76 60.859 17.161 94.937 17.544l0.165 0.001c53.986 2.458 70.182 2.989 206.882 2.989v0c136.7 0 152.896-0.53 206.882-2.989 34.24-0.426 66.85-6.859 97.002-18.29l-1.948 0.648c23.079-8.676 42.737-21.732 58.818-38.282l0.037-0.038c16.552-16.107 29.576-35.749 37.863-57.715l0.361-1.092c10.789-28.204 17.222-60.815 17.64-94.875l0.002-0.179c2.458-53.986 2.989-70.182 2.989-206.882s-0.53-152.896-2.989-206.882zM511.952 710.941c-145.218 0-262.941-117.723-262.941-262.941s117.723-262.941 262.941-262.941c145.218 0 262.941 117.723 262.941 262.941v0c0 145.218-117.723 262.941-262.941 262.941v0zM511.952 277.124c-94.265 0-170.683 76.417-170.683 170.683s76.417 170.683 170.683 170.683c94.265 0 170.683-76.417 170.683-170.683v0c-0.137-94.162-76.502-170.442-170.683-170.442 0 0 0 0 0 0v0zM846.762 721.304c0-33.942-27.515-61.457-61.457-61.457s-61.457 27.515-61.457 61.457c0 33.942 27.515 61.457 61.457 61.457v0c33.942 0 61.457-27.515 61.457-61.457v0z" />
<glyph unicode="&#xe90e;" glyph-name="facebook" d="M667.16 788.017h94.549v164.669c-40.061 4.662-86.475 7.322-133.511 7.322-1.492 0-2.983-0.003-4.473-0.008l0.232 0.001c-299.154 0-217.771-338.749-229.669-388.389h-150.479v-184.076h150.43v-463.238h184.466v463.238h144.335l22.918 184.076h-167.302c8.094 121.905-32.817 216.454 88.503 216.454z" />
<glyph unicode="&#xe90f;" d="M226.94 341.205l-35.663-133.060-130.12-2.747c-38.415 70.181-61.009 153.754-61.009 242.604 0 86.015 21.175 167.084 58.596 238.279l-1.346-2.811 116-21.253 50.651-115.229c-10.409-29.464-16.423-63.442-16.423-98.824 0-38.402 7.085-75.149 20.018-109.006l-0.703 2.096z" />
<glyph unicode="&#xe910;" d="M1015.036 543.663c5.744-28.781 9.031-61.868 9.031-95.723 0-160.998-74.338-304.634-190.562-398.455l-0.975-0.762-146.072 7.47-20.675 129.060c59.932 35.577 105.828 89.399 130.571 153.719l0.706 2.088h-273.783v202.41h491.566z" />
<glyph unicode="&#xe911;" d="M832.482 48.771v0c-86.928-70.23-198.787-112.739-320.574-112.739-193.919 0-362.665 107.776-449.606 266.696l-1.338 2.67 165.928 135.807c44.583-116.337 155.343-197.434 285.044-197.434 56.57 0 109.536 15.427 154.922 42.303l-1.411-0.773z" />
<glyph unicode="&#xe912;" d="M838.795 842.12l-165.831-135.759c-45.703 28.877-101.323 46.014-160.946 46.014-132.691 0-245.558-84.879-287.268-203.303l-0.654-2.132-166.795 136.53c87.105 165.543 257.936 276.494 454.68 276.494 124.621 0 238.844-44.515 327.638-118.511l-0.824 0.668z" />
<glyph unicode="&#xe913;" glyph-name="eye" d="M198.183 706.599c84.415 59.978 189.583 95.884 303.137 95.884 1.705 0 3.409-0.008 5.11-0.024l-0.26 0.002c1.665 0.019 3.631 0.030 5.601 0.030 113.049 0 217.708-35.92 303.186-96.969l-1.587 1.077c88.165-61.265 156.169-145.959 195.642-245.106l1.281-3.647c-40.754-102.794-108.758-187.487-195.152-247.587l-1.771-1.166c-83.891-59.972-188.55-95.892-301.599-95.892-1.969 0-3.935 0.011-5.899 0.033l0.299-0.003c-1.442-0.014-3.145-0.022-4.851-0.022-113.554 0-218.722 35.906-304.769 96.984l1.632-1.1c-88.761 61.013-157.227 145.764-196.905 245.127l-1.278 3.627c40.957 102.989 109.423 187.741 196.368 247.573l1.815 1.181zM343.513 295.266c40.401-41.852 96.999-67.839 159.666-67.839 1.024 0 2.047 0.007 3.068 0.021l-0.155-0.002c1.010-0.017 2.202-0.026 3.396-0.026 62.197 0 118.318 26.015 158.076 67.758l0.084 0.089c41.256 40.594 66.818 97.030 66.818 159.436 0 1.105-0.008 2.209-0.024 3.31l0.002-0.167c0.014 0.935 0.022 2.038 0.022 3.143 0 62.406-25.563 118.842-66.789 159.407l-0.030 0.029c-39.842 41.832-95.963 67.847-158.16 67.847-1.194 0-2.386-0.010-3.575-0.029l0.179 0.002c-0.866 0.012-1.889 0.019-2.913 0.019-62.667 0-119.265-25.988-159.604-67.774l-0.063-0.065c-41.852-40.401-67.839-96.999-67.839-159.666 0-1.024 0.007-2.047 0.021-3.068l-0.002 0.155c-0.012-0.866-0.019-1.889-0.019-2.913 0-62.667 25.988-119.265 67.774-159.604l0.065-0.063zM408.103 555.914c23.985 24.567 57.433 39.803 94.439 39.803 0.888 0 1.774-0.009 2.658-0.026l-0.132 0.002c0.585 0.009 1.275 0.014 1.966 0.014 37.517 0 71.475-15.24 96.019-39.868l0.004-0.004c25.268-24.006 40.986-57.856 40.986-95.376 0-0.919-0.009-1.835-0.028-2.749l0.002 0.136c0.017-0.777 0.026-1.694 0.026-2.613 0-37.521-15.718-71.37-40.929-95.323l-0.057-0.053c-24.548-24.631-58.506-39.871-96.023-39.871-0.691 0-1.382 0.005-2.070 0.015l0.104-0.001c-0.706-0.014-1.539-0.021-2.373-0.021-37.044 0-70.522 15.266-94.486 39.851l-0.027 0.028c-24.627 24.188-39.89 57.839-39.89 95.054 0 1.032 0.012 2.061 0.035 3.087l-0.003-0.153c-0.021 0.874-0.032 1.903-0.032 2.935 0 37.216 15.263 70.867 39.87 95.035l0.020 0.019z" />
<glyph unicode="&#xe914;" glyph-name="lock" d="M821.721 606.799c0.218 0.002 0.475 0.003 0.733 0.003 26.989 0 51.347-11.264 68.629-29.348l0.034-0.036c18.12-17.316 29.384-41.674 29.384-68.663 0-0.258-0.001-0.515-0.003-0.772v0.039-503.572c0.002-0.218 0.003-0.475 0.003-0.733 0-26.989-11.264-51.347-29.348-68.629l-0.036-0.034c-17.316-18.12-41.674-29.384-68.663-29.384-0.258 0-0.515 0.001-0.772 0.003h-602.309c-0.568-0.012-1.239-0.019-1.91-0.019-27.363 0-52.098 11.252-69.831 29.382l-0.018 0.018c-18.167 17.322-29.463 41.711-29.463 68.739 0 0.286 0.001 0.572 0.004 0.858v-0.044 503.572c-0.002 0.218-0.003 0.475-0.003 0.733 0 26.989 11.264 51.347 29.348 68.629l0.036 0.034c17.75 18.148 42.485 29.4 69.848 29.4 0.672 0 1.342-0.007 2.010-0.020l-0.1 0.002h49.388v101.218c-0.013 0.935-0.020 2.039-0.020 3.145 0 68.483 28.403 130.332 74.071 174.411l0.071 0.069c44.147 45.74 105.996 74.142 174.479 74.142 1.106 0 2.21-0.007 3.312-0.022l-0.167 0.002c1.072 0.017 2.338 0.027 3.605 0.027 67.971 0 129.301-28.432 172.746-74.052l0.092-0.098c45.051-44.327 72.966-105.953 72.966-174.098 0-1.24-0.009-2.477-0.028-3.713l0.002 0.187v-101.376zM630.154 817.585c-27.446 28.342-65.845 45.935-108.354 45.935-0.676 0-1.351-0.004-2.025-0.013l0.102 0.001c-0.801 0.016-1.746 0.025-2.693 0.025-41.999 0-79.881-17.624-106.655-45.88l-0.063-0.067c-27.642-27.425-44.754-65.429-44.754-107.429 0-0.697 0.005-1.392 0.014-2.087l-0.001 0.105h4.49v-101.376h305.625v101.218c0.008 0.568 0.012 1.238 0.012 1.91 0 42.246-17.504 80.405-45.656 107.617l-0.042 0.041zM821.721 4.608v503.572h-602.348v-503.572zM589.903 184.674c-17.528-18.135-42.072-29.395-69.245-29.395-0.579 0-1.157 0.005-1.734 0.015l0.087-0.001c-0.49-0.009-1.068-0.014-1.648-0.014-27.173 0-51.716 11.26-69.218 29.368l-0.026 0.027c-18.148 17.75-29.4 42.485-29.4 69.848 0 0.672 0.007 1.342 0.020 2.010l-0.002-0.1c-0.012 0.568-0.019 1.239-0.019 1.91 0 27.363 11.252 52.098 29.382 69.831l0.018 0.018c17.528 18.135 42.072 29.395 69.245 29.395 0.579 0 1.157-0.005 1.734-0.015l-0.087 0.001c0.49 0.009 1.068 0.014 1.648 0.014 27.173 0 51.716-11.26 69.218-29.368l0.026-0.027c18.148-17.75 29.4-42.485 29.4-69.848 0-0.672-0.007-1.342-0.020-2.010l0.002 0.1c0.012-0.568 0.019-1.239 0.019-1.91 0-27.363-11.252-52.098-29.382-69.831l-0.018-0.018z" />
<glyph unicode="&#xe915;" glyph-name="mobile" d="M935.542 716.052c-10.502 10.559-25.041 17.093-41.106 17.093-0.004 0-0.008 0-0.012 0h-250.092v139.579c-0.045 48.183-39.093 87.231-87.272 87.276h-430.399c-48.183-0.045-87.231-39.093-87.276-87.272v-821.803c0.134-46.19 37.542-83.598 83.719-83.732h437.497c46.208 0.089 83.642 37.524 83.732 83.723v201.343h250.092c32.097 0.090 58.087 26.107 58.132 58.206v364.469c0 0.003 0 0.007 0 0.011 0 16.065-6.534 30.604-17.090 41.104l-0.003 0.003zM222.602 901.79h238.592v-33.241c-0.089-13.755-11.215-24.881-24.961-24.97h-188.66c-13.755 0.089-24.881 11.215-24.97 24.961v33.249zM586.201 51.082c-0.089-14.103-11.497-25.511-25.592-25.6h-437.492c-14.121 0.045-25.555 11.479-25.6 25.596v103.979c15.216-8.43 33.363-13.391 52.67-13.391 0.065 0 0.13 0 0.194 0h382.808c0.078 0 0.17 0 0.263 0 19.307 0 37.454 4.961 53.238 13.679l-0.568-0.288zM533.268 199.877h-382.818c-14.673 0.062-27.929 6.075-37.489 15.749l-0.005 0.005c-8.837 8.735-14.558 20.606-15.353 33.805l-0.007 0.144v623.143c0.089 16.017 13.049 28.977 29.057 29.066h37.739v-33.241c0 0 0 0 0 0 0-45.971 37.222-83.248 83.172-83.338h188.583c45.924 0.134 83.102 37.394 83.102 83.338 0 0.028 0 0.056 0 0.083v-0.004 33.162h37.809c16.017-0.089 28.977-13.049 29.066-29.057v-139.588h-271.439c-16.068-0.006-30.608-6.539-41.115-17.091l-0.002-0.002c-10.583-10.499-17.143-25.039-17.172-41.112v-364.549c0-0.003 0-0.007 0-0.011 0-16.065 6.534-30.604 17.090-41.104l0.003-0.003c10.509-10.554 25.050-17.087 41.116-17.093h271.519c-0.134-28.959-23.64-52.382-52.617-52.382-0.111 0-0.222 0-0.333 0.001h0.017zM894.425 310.39s0 0 0 0h-579.742c0 10.949 0 259.466 0 364.544h579.742zM341.858 111.655c-16.053 0-29.066-13.013-29.066-29.066s13.013-29.066 29.066-29.066c16.053 0 29.066 13.013 29.066 29.066v0c-0.045 16.035-13.031 29.021-29.062 29.066h-0.004zM401.881 510.149h15.754c16.053 0 29.066 13.013 29.066 29.066s-13.013 29.066-29.066 29.066h-15.754c-16.053 0-29.066-13.013-29.066-29.066s13.013-29.066 29.066-29.066v0zM401.881 393.807h283.097c16.053 0 29.066 13.013 29.066 29.066s-13.013 29.066-29.066 29.066h-283.097c-16.053 0-29.066-13.013-29.066-29.066s13.013-29.066 29.066-29.066v0zM533.819 510.149h15.754c16.053 0 29.066 13.013 29.066 29.066s-13.013 29.066-29.066 29.066h-15.754c-16.053 0-29.066-13.013-29.066-29.066s13.013-29.066 29.066-29.066v0zM665.6 510.149h15.754c16.053 0 29.066 13.013 29.066 29.066s-13.013 29.066-29.066 29.066h-15.754c-16.053 0-29.066-13.013-29.066-29.066s13.013-29.066 29.066-29.066v0zM797.46 510.149h15.754c16.053 0 29.066 13.013 29.066 29.066s-13.013 29.066-29.066 29.066h-15.754c-16.053 0-29.066-13.013-29.066-29.066s13.013-29.066 29.066-29.066v0z" />
<glyph unicode="&#xe916;" glyph-name="email" d="M123.159 7.773c-68.948 4.065-123.323 60.972-123.323 130.579 0 2.302 0.059 4.59 0.177 6.862l-0.013-0.318v584.983c-0.104 1.954-0.164 4.242-0.164 6.544 0 69.607 54.375 126.514 122.966 130.562l0.357 0.017h804.771c68.948-4.065 123.323-60.972 123.323-130.579 0-2.302-0.059-4.59-0.177-6.862l0.013 0.318v-584.983c0.104-1.954 0.164-4.242 0.164-6.544 0-69.607-54.375-126.514-122.966-130.562l-0.357-0.017zM82.106 144.896c-0.033-0.632-0.051-1.373-0.051-2.118 0-23.195 18.127-42.156 40.987-43.491l0.118-0.005h804.771c22.978 1.34 41.105 20.302 41.105 43.497 0 0.745-0.019 1.485-0.056 2.221l0.004-0.103v556.87l-443.392-367.057-443.485 367.151zM525.591 448.652l394.985 326.935h-789.876z" />
</font>
</defs>
</svg>
